<mxfile host="app.diagrams.net" modified="2024-06-19T21:11:06.347Z" agent="Mozilla/5.0 (Windows NT 10.0; Win64; x64) AppleWebKit/537.36 (KHTML, like Gecko) Chrome/126.0.0.0 Safari/537.36" etag="O7LVm9-vhBcWBxpKXXiQ" version="24.5.5" type="device">
  <diagram name="Page-1" id="5f0bae14-7c28-e335-631c-24af17079c00">
    <mxGraphModel dx="2534" dy="738" grid="1" gridSize="10" guides="1" tooltips="1" connect="1" arrows="1" fold="1" page="1" pageScale="1" pageWidth="1100" pageHeight="850" background="none" math="0" shadow="0">
      <root>
        <mxCell id="0" />
        <mxCell id="1" parent="0" />
        <mxCell id="jYgMbnTf0k2NDcr2TIOn-8" style="edgeStyle=orthogonalEdgeStyle;rounded=0;orthogonalLoop=1;jettySize=auto;html=1;entryX=0;entryY=0.5;entryDx=0;entryDy=0;entryPerimeter=0;" parent="1" target="LfKEWyIAfhMCScR9uphU-1" edge="1">
          <mxGeometry relative="1" as="geometry">
            <Array as="points">
              <mxPoint x="50" y="744" />
              <mxPoint x="50" y="877" />
            </Array>
            <mxPoint x="18.5" y="744" as="sourcePoint" />
            <mxPoint x="100" y="877.0000000000002" as="targetPoint" />
          </mxGeometry>
        </mxCell>
        <mxCell id="jYgMbnTf0k2NDcr2TIOn-3" value="" style="verticalLabelPosition=bottom;html=1;verticalAlign=top;align=center;strokeColor=none;fillColor=#00BEF2;shape=mxgraph.azure.computer;pointerEvents=1;" parent="1" vertex="1">
          <mxGeometry x="-41.5" y="719" width="60" height="50" as="geometry" />
        </mxCell>
        <mxCell id="jYgMbnTf0k2NDcr2TIOn-10" style="edgeStyle=orthogonalEdgeStyle;rounded=0;orthogonalLoop=1;jettySize=auto;html=1;exitX=1;exitY=0.5;exitDx=0;exitDy=0;exitPerimeter=0;" parent="1" edge="1">
          <mxGeometry relative="1" as="geometry">
            <mxPoint x="270" y="877" as="targetPoint" />
            <mxPoint x="169" y="877.0000000000002" as="sourcePoint" />
          </mxGeometry>
        </mxCell>
        <mxCell id="jYgMbnTf0k2NDcr2TIOn-6" value="" style="verticalLabelPosition=bottom;html=1;verticalAlign=top;align=center;strokeColor=none;fillColor=#00BEF2;shape=mxgraph.azure.mobile;pointerEvents=1;" parent="1" vertex="1">
          <mxGeometry x="-30" y="981" width="37" height="60" as="geometry" />
        </mxCell>
        <mxCell id="jYgMbnTf0k2NDcr2TIOn-7" value="E-commerce App" style="swimlane;whiteSpace=wrap;html=1;" parent="1" vertex="1">
          <mxGeometry x="270" y="120" width="1061.5" height="1260" as="geometry" />
        </mxCell>
        <mxCell id="jYgMbnTf0k2NDcr2TIOn-22" style="edgeStyle=orthogonalEdgeStyle;rounded=0;orthogonalLoop=1;jettySize=auto;html=1;" parent="jYgMbnTf0k2NDcr2TIOn-7" source="jYgMbnTf0k2NDcr2TIOn-11" target="jYgMbnTf0k2NDcr2TIOn-21" edge="1">
          <mxGeometry relative="1" as="geometry" />
        </mxCell>
        <mxCell id="jYgMbnTf0k2NDcr2TIOn-28" style="edgeStyle=orthogonalEdgeStyle;rounded=0;orthogonalLoop=1;jettySize=auto;html=1;entryX=0.5;entryY=0;entryDx=0;entryDy=0;entryPerimeter=0;" parent="jYgMbnTf0k2NDcr2TIOn-7" source="jYgMbnTf0k2NDcr2TIOn-11" target="jYgMbnTf0k2NDcr2TIOn-25" edge="1">
          <mxGeometry relative="1" as="geometry" />
        </mxCell>
        <mxCell id="JZaYwm-0ywVfrjbmCajF-6" style="edgeStyle=orthogonalEdgeStyle;rounded=0;orthogonalLoop=1;jettySize=auto;html=1;entryX=0.75;entryY=1;entryDx=0;entryDy=0;" parent="jYgMbnTf0k2NDcr2TIOn-7" source="jYgMbnTf0k2NDcr2TIOn-11" target="ORzUHnlXvHvA-4kOsw9z-22" edge="1">
          <mxGeometry relative="1" as="geometry">
            <mxPoint x="417.25" y="310" as="targetPoint" />
            <Array as="points">
              <mxPoint x="420" y="480" />
              <mxPoint x="420" y="480" />
            </Array>
          </mxGeometry>
        </mxCell>
        <mxCell id="jYgMbnTf0k2NDcr2TIOn-11" value="Search Service" style="rounded=0;whiteSpace=wrap;html=1;" parent="jYgMbnTf0k2NDcr2TIOn-7" vertex="1">
          <mxGeometry x="395" y="565.5" width="110" height="60" as="geometry" />
        </mxCell>
        <mxCell id="jYgMbnTf0k2NDcr2TIOn-17" value="Cart DB" style="shape=cylinder3;whiteSpace=wrap;html=1;boundedLbl=1;backgroundOutline=1;size=15;" parent="jYgMbnTf0k2NDcr2TIOn-7" vertex="1">
          <mxGeometry x="640" y="430" width="80" height="68.5" as="geometry" />
        </mxCell>
        <mxCell id="jYgMbnTf0k2NDcr2TIOn-34" style="edgeStyle=orthogonalEdgeStyle;rounded=0;orthogonalLoop=1;jettySize=auto;html=1;startArrow=none;startFill=0;endArrow=classic;endFill=1;dashed=1;" parent="jYgMbnTf0k2NDcr2TIOn-7" edge="1">
          <mxGeometry relative="1" as="geometry">
            <mxPoint x="450" y="785.5" as="targetPoint" />
            <mxPoint x="450" y="865.5" as="sourcePoint" />
          </mxGeometry>
        </mxCell>
        <mxCell id="liojZ3tH1QPqbdmrm_Vy-18" style="edgeStyle=orthogonalEdgeStyle;rounded=0;orthogonalLoop=1;jettySize=auto;html=1;dashed=1;" parent="jYgMbnTf0k2NDcr2TIOn-7" target="liojZ3tH1QPqbdmrm_Vy-11" edge="1">
          <mxGeometry relative="1" as="geometry">
            <Array as="points">
              <mxPoint x="397.75" y="907" />
              <mxPoint x="397.75" y="907" />
            </Array>
            <mxPoint x="411" y="907" as="sourcePoint" />
          </mxGeometry>
        </mxCell>
        <mxCell id="jYgMbnTf0k2NDcr2TIOn-19" value="Message Broker (e.g. Kafka)" style="text;html=1;align=center;verticalAlign=middle;resizable=0;points=[];autosize=1;strokeColor=none;fillColor=none;" parent="jYgMbnTf0k2NDcr2TIOn-7" vertex="1">
          <mxGeometry x="360" y="943.5" width="180" height="30" as="geometry" />
        </mxCell>
        <mxCell id="jYgMbnTf0k2NDcr2TIOn-72" style="edgeStyle=orthogonalEdgeStyle;rounded=0;orthogonalLoop=1;jettySize=auto;html=1;startArrow=none;startFill=0;endArrow=classic;endFill=1;entryX=0.5;entryY=1;entryDx=0;entryDy=0;entryPerimeter=0;" parent="jYgMbnTf0k2NDcr2TIOn-7" source="jYgMbnTf0k2NDcr2TIOn-21" target="jYgMbnTf0k2NDcr2TIOn-17" edge="1">
          <mxGeometry relative="1" as="geometry">
            <mxPoint x="680" y="525.5" as="targetPoint" />
          </mxGeometry>
        </mxCell>
        <mxCell id="jYgMbnTf0k2NDcr2TIOn-85" style="edgeStyle=orthogonalEdgeStyle;rounded=0;orthogonalLoop=1;jettySize=auto;html=1;entryX=1;entryY=0.5;entryDx=0;entryDy=0;startArrow=none;startFill=0;endArrow=classic;endFill=1;" parent="jYgMbnTf0k2NDcr2TIOn-7" source="jYgMbnTf0k2NDcr2TIOn-21" target="jYgMbnTf0k2NDcr2TIOn-79" edge="1">
          <mxGeometry relative="1" as="geometry">
            <Array as="points">
              <mxPoint x="1015" y="595.5" />
              <mxPoint x="1015" y="1095.5" />
            </Array>
          </mxGeometry>
        </mxCell>
        <mxCell id="jYgMbnTf0k2NDcr2TIOn-21" value="Cart Service" style="rounded=0;whiteSpace=wrap;html=1;" parent="jYgMbnTf0k2NDcr2TIOn-7" vertex="1">
          <mxGeometry x="625" y="565.5" width="110" height="60" as="geometry" />
        </mxCell>
        <mxCell id="jYgMbnTf0k2NDcr2TIOn-25" value="" style="sketch=0;points=[[0,0,0],[0.25,0,0],[0.5,0,0],[0.75,0,0],[1,0,0],[0,1,0],[0.25,1,0],[0.5,1,0],[0.75,1,0],[1,1,0],[0,0.25,0],[0,0.5,0],[0,0.75,0],[1,0.25,0],[1,0.5,0],[1,0.75,0]];outlineConnect=0;fontColor=#232F3E;gradientColor=#945DF2;gradientDirection=north;fillColor=#5A30B5;strokeColor=#ffffff;dashed=0;verticalLabelPosition=bottom;verticalAlign=top;align=center;html=1;fontSize=12;fontStyle=0;aspect=fixed;shape=mxgraph.aws4.resourceIcon;resIcon=mxgraph.aws4.elasticsearch_service;" parent="jYgMbnTf0k2NDcr2TIOn-7" vertex="1">
          <mxGeometry x="411" y="705.5" width="78" height="78" as="geometry" />
        </mxCell>
        <mxCell id="jYgMbnTf0k2NDcr2TIOn-37" style="edgeStyle=orthogonalEdgeStyle;rounded=0;orthogonalLoop=1;jettySize=auto;html=1;startArrow=none;startFill=0;endArrow=classic;endFill=1;" parent="jYgMbnTf0k2NDcr2TIOn-7" source="jYgMbnTf0k2NDcr2TIOn-32" edge="1">
          <mxGeometry relative="1" as="geometry">
            <mxPoint x="680" y="805.5" as="targetPoint" />
          </mxGeometry>
        </mxCell>
        <mxCell id="jYgMbnTf0k2NDcr2TIOn-32" value="Products Service" style="rounded=0;whiteSpace=wrap;html=1;" parent="jYgMbnTf0k2NDcr2TIOn-7" vertex="1">
          <mxGeometry x="625" y="874.5" width="110" height="60" as="geometry" />
        </mxCell>
        <mxCell id="jYgMbnTf0k2NDcr2TIOn-38" value="Products DB" style="shape=cylinder3;whiteSpace=wrap;html=1;boundedLbl=1;backgroundOutline=1;size=15;" parent="jYgMbnTf0k2NDcr2TIOn-7" vertex="1">
          <mxGeometry x="640" y="735.5" width="80" height="68.5" as="geometry" />
        </mxCell>
        <mxCell id="jYgMbnTf0k2NDcr2TIOn-62" style="edgeStyle=orthogonalEdgeStyle;rounded=0;orthogonalLoop=1;jettySize=auto;html=1;entryX=1;entryY=0.5;entryDx=0;entryDy=0;startArrow=none;startFill=0;endArrow=classic;endFill=1;dashed=1;dashPattern=12 12;" parent="jYgMbnTf0k2NDcr2TIOn-7" target="jYgMbnTf0k2NDcr2TIOn-32" edge="1">
          <mxGeometry relative="1" as="geometry">
            <mxPoint x="845" y="904.5" as="sourcePoint" />
          </mxGeometry>
        </mxCell>
        <mxCell id="jYgMbnTf0k2NDcr2TIOn-65" value="" style="edgeStyle=orthogonalEdgeStyle;rounded=0;orthogonalLoop=1;jettySize=auto;html=1;startArrow=none;startFill=0;endArrow=classic;endFill=1;" parent="jYgMbnTf0k2NDcr2TIOn-7" target="jYgMbnTf0k2NDcr2TIOn-32" edge="1">
          <mxGeometry relative="1" as="geometry">
            <mxPoint x="845" y="904.5" as="sourcePoint" />
          </mxGeometry>
        </mxCell>
        <mxCell id="JZaYwm-0ywVfrjbmCajF-1" style="edgeStyle=orthogonalEdgeStyle;rounded=0;orthogonalLoop=1;jettySize=auto;html=1;" parent="jYgMbnTf0k2NDcr2TIOn-7" target="jYgMbnTf0k2NDcr2TIOn-73" edge="1">
          <mxGeometry relative="1" as="geometry">
            <mxPoint x="205" y="450" as="sourcePoint" />
          </mxGeometry>
        </mxCell>
        <mxCell id="LfKEWyIAfhMCScR9uphU-3" style="edgeStyle=orthogonalEdgeStyle;rounded=0;orthogonalLoop=1;jettySize=auto;html=1;dashed=1;endArrow=none;endFill=0;" edge="1" parent="jYgMbnTf0k2NDcr2TIOn-7" target="LfKEWyIAfhMCScR9uphU-2">
          <mxGeometry relative="1" as="geometry">
            <mxPoint x="205" y="874.5" as="sourcePoint" />
          </mxGeometry>
        </mxCell>
        <mxCell id="JZaYwm-0ywVfrjbmCajF-7" style="edgeStyle=orthogonalEdgeStyle;rounded=0;orthogonalLoop=1;jettySize=auto;html=1;entryX=0.25;entryY=1;entryDx=0;entryDy=0;endArrow=none;endFill=0;startArrow=classic;startFill=1;" parent="jYgMbnTf0k2NDcr2TIOn-7" source="jYgMbnTf0k2NDcr2TIOn-73" target="ORzUHnlXvHvA-4kOsw9z-22" edge="1">
          <mxGeometry relative="1" as="geometry" />
        </mxCell>
        <mxCell id="jYgMbnTf0k2NDcr2TIOn-73" value="Recommendation&lt;br&gt;Service" style="rounded=0;whiteSpace=wrap;html=1;" parent="jYgMbnTf0k2NDcr2TIOn-7" vertex="1">
          <mxGeometry x="150" y="565.5" width="110" height="60" as="geometry" />
        </mxCell>
        <mxCell id="jYgMbnTf0k2NDcr2TIOn-80" style="edgeStyle=orthogonalEdgeStyle;rounded=0;orthogonalLoop=1;jettySize=auto;html=1;startArrow=none;startFill=0;endArrow=classic;endFill=1;" parent="jYgMbnTf0k2NDcr2TIOn-7" source="jYgMbnTf0k2NDcr2TIOn-79" target="jYgMbnTf0k2NDcr2TIOn-32" edge="1">
          <mxGeometry relative="1" as="geometry" />
        </mxCell>
        <mxCell id="jYgMbnTf0k2NDcr2TIOn-81" style="edgeStyle=orthogonalEdgeStyle;rounded=0;orthogonalLoop=1;jettySize=auto;html=1;startArrow=none;startFill=0;endArrow=classic;endFill=1;dashed=1;" parent="jYgMbnTf0k2NDcr2TIOn-7" source="jYgMbnTf0k2NDcr2TIOn-79" target="jYgMbnTf0k2NDcr2TIOn-19" edge="1">
          <mxGeometry relative="1" as="geometry" />
        </mxCell>
        <mxCell id="jYgMbnTf0k2NDcr2TIOn-83" style="edgeStyle=orthogonalEdgeStyle;rounded=0;orthogonalLoop=1;jettySize=auto;html=1;startArrow=none;startFill=0;endArrow=classic;endFill=1;" parent="jYgMbnTf0k2NDcr2TIOn-7" source="jYgMbnTf0k2NDcr2TIOn-79" target="jYgMbnTf0k2NDcr2TIOn-82" edge="1">
          <mxGeometry relative="1" as="geometry" />
        </mxCell>
        <mxCell id="jYgMbnTf0k2NDcr2TIOn-79" value="Orders Service" style="rounded=0;whiteSpace=wrap;html=1;" parent="jYgMbnTf0k2NDcr2TIOn-7" vertex="1">
          <mxGeometry x="625" y="1065.5" width="110" height="60" as="geometry" />
        </mxCell>
        <mxCell id="jYgMbnTf0k2NDcr2TIOn-82" value="Orders DB" style="shape=cylinder3;whiteSpace=wrap;html=1;boundedLbl=1;backgroundOutline=1;size=15;" parent="jYgMbnTf0k2NDcr2TIOn-7" vertex="1">
          <mxGeometry x="640" y="1165.5" width="80" height="68.5" as="geometry" />
        </mxCell>
        <mxCell id="jYgMbnTf0k2NDcr2TIOn-87" style="edgeStyle=orthogonalEdgeStyle;rounded=0;orthogonalLoop=1;jettySize=auto;html=1;entryX=0;entryY=0.75;entryDx=0;entryDy=0;startArrow=classic;startFill=1;endArrow=none;endFill=0;" parent="jYgMbnTf0k2NDcr2TIOn-7" source="jYgMbnTf0k2NDcr2TIOn-86" target="jYgMbnTf0k2NDcr2TIOn-79" edge="1">
          <mxGeometry relative="1" as="geometry" />
        </mxCell>
        <mxCell id="jYgMbnTf0k2NDcr2TIOn-86" value="Payments Service" style="rounded=0;whiteSpace=wrap;html=1;" parent="jYgMbnTf0k2NDcr2TIOn-7" vertex="1">
          <mxGeometry x="425" y="1155.5" width="110" height="60" as="geometry" />
        </mxCell>
        <mxCell id="ORzUHnlXvHvA-4kOsw9z-17" value="User DB" style="shape=cylinder3;whiteSpace=wrap;html=1;boundedLbl=1;backgroundOutline=1;size=15;" parent="jYgMbnTf0k2NDcr2TIOn-7" vertex="1">
          <mxGeometry x="560" y="233.5" width="80" height="68.5" as="geometry" />
        </mxCell>
        <mxCell id="JZaYwm-0ywVfrjbmCajF-9" style="edgeStyle=orthogonalEdgeStyle;rounded=0;orthogonalLoop=1;jettySize=auto;html=1;" parent="jYgMbnTf0k2NDcr2TIOn-7" source="ORzUHnlXvHvA-4kOsw9z-22" edge="1">
          <mxGeometry relative="1" as="geometry">
            <mxPoint x="557.25" y="272" as="targetPoint" />
          </mxGeometry>
        </mxCell>
        <mxCell id="ORzUHnlXvHvA-4kOsw9z-22" value="User Service" style="rounded=0;whiteSpace=wrap;html=1;" parent="jYgMbnTf0k2NDcr2TIOn-7" vertex="1">
          <mxGeometry x="337.25" y="242" width="110" height="60" as="geometry" />
        </mxCell>
        <mxCell id="ORzUHnlXvHvA-4kOsw9z-29" style="edgeStyle=orthogonalEdgeStyle;rounded=0;orthogonalLoop=1;jettySize=auto;html=1;startArrow=none;startFill=0;endArrow=classic;endFill=1;dashed=1;exitX=0.5;exitY=1;exitDx=0;exitDy=0;" parent="jYgMbnTf0k2NDcr2TIOn-7" source="jYgMbnTf0k2NDcr2TIOn-21" edge="1">
          <mxGeometry relative="1" as="geometry">
            <mxPoint x="634.75" y="915" as="sourcePoint" />
            <mxPoint x="489" y="890" as="targetPoint" />
            <Array as="points">
              <mxPoint x="679.75" y="670" />
              <mxPoint x="608.75" y="670" />
              <mxPoint x="608.75" y="890" />
            </Array>
          </mxGeometry>
        </mxCell>
        <mxCell id="ORzUHnlXvHvA-4kOsw9z-33" style="edgeStyle=orthogonalEdgeStyle;rounded=0;orthogonalLoop=1;jettySize=auto;html=1;entryX=0.5;entryY=1;entryDx=0;entryDy=0;dashed=1;startArrow=none;startFill=0;endArrow=classic;endFill=1;exitX=0;exitY=0.5;exitDx=0;exitDy=0;" parent="jYgMbnTf0k2NDcr2TIOn-7" source="jYgMbnTf0k2NDcr2TIOn-32" edge="1">
          <mxGeometry relative="1" as="geometry">
            <mxPoint x="490" y="989" as="sourcePoint" />
            <mxPoint x="490" y="910" as="targetPoint" />
            <Array as="points">
              <mxPoint x="624.75" y="910" />
            </Array>
          </mxGeometry>
        </mxCell>
        <mxCell id="LfKEWyIAfhMCScR9uphU-14" value="" style="edgeStyle=orthogonalEdgeStyle;rounded=0;orthogonalLoop=1;jettySize=auto;html=1;" edge="1" parent="jYgMbnTf0k2NDcr2TIOn-7" source="liojZ3tH1QPqbdmrm_Vy-11" target="LfKEWyIAfhMCScR9uphU-11">
          <mxGeometry relative="1" as="geometry" />
        </mxCell>
        <mxCell id="liojZ3tH1QPqbdmrm_Vy-11" value="Data Processing Service" style="rounded=0;whiteSpace=wrap;html=1;" parent="jYgMbnTf0k2NDcr2TIOn-7" vertex="1">
          <mxGeometry x="170.5" y="877" width="71.25" height="60" as="geometry" />
        </mxCell>
        <mxCell id="JZaYwm-0ywVfrjbmCajF-10" style="edgeStyle=orthogonalEdgeStyle;rounded=0;orthogonalLoop=1;jettySize=auto;html=1;entryX=0.75;entryY=0;entryDx=0;entryDy=0;" parent="jYgMbnTf0k2NDcr2TIOn-7" target="jYgMbnTf0k2NDcr2TIOn-11" edge="1">
          <mxGeometry relative="1" as="geometry">
            <Array as="points">
              <mxPoint x="478" y="493" />
            </Array>
            <mxPoint x="477.5" y="420" as="sourcePoint" />
          </mxGeometry>
        </mxCell>
        <mxCell id="4_Tzb1BL_y-oW_tWvAmv-4" style="edgeStyle=orthogonalEdgeStyle;rounded=0;orthogonalLoop=1;jettySize=auto;html=1;dashed=1;startArrow=classic;startFill=1;endArrow=none;endFill=0;" parent="jYgMbnTf0k2NDcr2TIOn-7" source="4_Tzb1BL_y-oW_tWvAmv-1" target="LfKEWyIAfhMCScR9uphU-20" edge="1">
          <mxGeometry relative="1" as="geometry">
            <mxPoint x="390" y="930" as="targetPoint" />
            <Array as="points">
              <mxPoint x="380" y="1185" />
              <mxPoint x="380" y="920" />
            </Array>
          </mxGeometry>
        </mxCell>
        <mxCell id="4_Tzb1BL_y-oW_tWvAmv-6" style="edgeStyle=orthogonalEdgeStyle;rounded=0;orthogonalLoop=1;jettySize=auto;html=1;entryX=0;entryY=0.5;entryDx=0;entryDy=0;" parent="jYgMbnTf0k2NDcr2TIOn-7" source="4_Tzb1BL_y-oW_tWvAmv-1" target="ORzUHnlXvHvA-4kOsw9z-22" edge="1">
          <mxGeometry relative="1" as="geometry">
            <Array as="points">
              <mxPoint x="70" y="1185" />
              <mxPoint x="70" y="272" />
            </Array>
          </mxGeometry>
        </mxCell>
        <mxCell id="4_Tzb1BL_y-oW_tWvAmv-1" value="Notification Service" style="rounded=0;whiteSpace=wrap;html=1;" parent="jYgMbnTf0k2NDcr2TIOn-7" vertex="1">
          <mxGeometry x="245" y="1155" width="110" height="60" as="geometry" />
        </mxCell>
        <mxCell id="LfKEWyIAfhMCScR9uphU-4" style="edgeStyle=orthogonalEdgeStyle;rounded=0;orthogonalLoop=1;jettySize=auto;html=1;dashed=1;" edge="1" parent="jYgMbnTf0k2NDcr2TIOn-7" source="LfKEWyIAfhMCScR9uphU-2">
          <mxGeometry relative="1" as="geometry">
            <mxPoint x="205" y="630" as="targetPoint" />
          </mxGeometry>
        </mxCell>
        <mxCell id="LfKEWyIAfhMCScR9uphU-42" style="edgeStyle=orthogonalEdgeStyle;rounded=0;orthogonalLoop=1;jettySize=auto;html=1;entryX=0.5;entryY=0;entryDx=0;entryDy=0;dashed=1;" edge="1" parent="jYgMbnTf0k2NDcr2TIOn-7" source="LfKEWyIAfhMCScR9uphU-2" target="LfKEWyIAfhMCScR9uphU-37">
          <mxGeometry relative="1" as="geometry">
            <Array as="points">
              <mxPoint x="220" y="650" />
              <mxPoint x="885" y="650" />
            </Array>
          </mxGeometry>
        </mxCell>
        <mxCell id="LfKEWyIAfhMCScR9uphU-2" value="" style="sketch=0;outlineConnect=0;fontColor=#232F3E;gradientColor=none;fillColor=#E7157B;strokeColor=none;dashed=0;verticalLabelPosition=bottom;verticalAlign=top;align=center;html=1;fontSize=12;fontStyle=0;aspect=fixed;pointerEvents=1;shape=mxgraph.aws4.mq_broker;direction=south;" vertex="1" parent="jYgMbnTf0k2NDcr2TIOn-7">
          <mxGeometry x="170.5" y="701" width="69" height="78" as="geometry" />
        </mxCell>
        <mxCell id="LfKEWyIAfhMCScR9uphU-11" value="Data Processing DB" style="shape=cylinder3;whiteSpace=wrap;html=1;boundedLbl=1;backgroundOutline=1;size=15;" vertex="1" parent="jYgMbnTf0k2NDcr2TIOn-7">
          <mxGeometry x="176.13" y="985.5" width="60" height="80" as="geometry" />
        </mxCell>
        <mxCell id="LfKEWyIAfhMCScR9uphU-16" value="Note: Distributed datastore with high querying capabilities (e.g. BigQuery)" style="shape=note;whiteSpace=wrap;html=1;backgroundOutline=1;darkOpacity=0.05;" vertex="1" parent="jYgMbnTf0k2NDcr2TIOn-7">
          <mxGeometry x="81.63" y="1030" width="88.87" height="125.5" as="geometry" />
        </mxCell>
        <mxCell id="LfKEWyIAfhMCScR9uphU-20" value="" style="sketch=0;outlineConnect=0;fontColor=#232F3E;gradientColor=none;fillColor=#E7157B;strokeColor=none;dashed=0;verticalLabelPosition=bottom;verticalAlign=top;align=center;html=1;fontSize=12;fontStyle=0;aspect=fixed;pointerEvents=1;shape=mxgraph.aws4.mq_broker;direction=south;" vertex="1" parent="jYgMbnTf0k2NDcr2TIOn-7">
          <mxGeometry x="420" y="865.5" width="69" height="78" as="geometry" />
        </mxCell>
        <mxCell id="LfKEWyIAfhMCScR9uphU-21" value="Message Broker (e.g. Kafka)" style="text;html=1;align=center;verticalAlign=middle;resizable=0;points=[];autosize=1;strokeColor=none;fillColor=none;" vertex="1" parent="jYgMbnTf0k2NDcr2TIOn-7">
          <mxGeometry x="116.13" y="783.5" width="180" height="30" as="geometry" />
        </mxCell>
        <mxCell id="LfKEWyIAfhMCScR9uphU-22" value="Note: Search Service DB, optimized for keyword querying and searching (e.g. Elasticsearch)" style="shape=note;whiteSpace=wrap;html=1;backgroundOutline=1;darkOpacity=0.05;" vertex="1" parent="jYgMbnTf0k2NDcr2TIOn-7">
          <mxGeometry x="500" y="670" width="86.25" height="155.5" as="geometry" />
        </mxCell>
        <mxCell id="LfKEWyIAfhMCScR9uphU-25" value="" style="outlineConnect=0;dashed=0;verticalLabelPosition=bottom;verticalAlign=top;align=center;html=1;shape=mxgraph.aws3.redis;fillColor=#2E73B8;gradientColor=none;" vertex="1" parent="jYgMbnTf0k2NDcr2TIOn-7">
          <mxGeometry x="535" y="460" width="60" height="63" as="geometry" />
        </mxCell>
        <mxCell id="LfKEWyIAfhMCScR9uphU-26" style="edgeStyle=orthogonalEdgeStyle;rounded=0;orthogonalLoop=1;jettySize=auto;html=1;entryX=0.5;entryY=1;entryDx=0;entryDy=0;entryPerimeter=0;" edge="1" parent="jYgMbnTf0k2NDcr2TIOn-7" source="jYgMbnTf0k2NDcr2TIOn-11" target="LfKEWyIAfhMCScR9uphU-25">
          <mxGeometry relative="1" as="geometry">
            <Array as="points">
              <mxPoint x="565" y="580" />
            </Array>
          </mxGeometry>
        </mxCell>
        <mxCell id="LfKEWyIAfhMCScR9uphU-27" value="Note: In-memory cache to store and query frequently searched products, e.g. Redis" style="shape=note;whiteSpace=wrap;html=1;backgroundOutline=1;darkOpacity=0.05;" vertex="1" parent="jYgMbnTf0k2NDcr2TIOn-7">
          <mxGeometry x="530" y="340" width="120" height="90" as="geometry" />
        </mxCell>
        <mxCell id="LfKEWyIAfhMCScR9uphU-28" value="Customer Home Page" style="html=1;whiteSpace=wrap;strokeColor=none;fillColor=#0079D6;labelPosition=center;verticalLabelPosition=middle;verticalAlign=top;align=center;fontSize=12;outlineConnect=0;spacingTop=-6;fontColor=#FFFFFF;sketch=0;shape=mxgraph.sitemap.page;" vertex="1" parent="jYgMbnTf0k2NDcr2TIOn-7">
          <mxGeometry x="140" y="380" width="135" height="70" as="geometry" />
        </mxCell>
        <mxCell id="LfKEWyIAfhMCScR9uphU-29" value="Search Page" style="html=1;whiteSpace=wrap;strokeColor=none;fillColor=#0079D6;labelPosition=center;verticalLabelPosition=middle;verticalAlign=top;align=center;fontSize=12;outlineConnect=0;spacingTop=-6;fontColor=#FFFFFF;sketch=0;shape=mxgraph.sitemap.page;" vertex="1" parent="jYgMbnTf0k2NDcr2TIOn-7">
          <mxGeometry x="430" y="320" width="90" height="100" as="geometry" />
        </mxCell>
        <mxCell id="LfKEWyIAfhMCScR9uphU-38" style="edgeStyle=orthogonalEdgeStyle;rounded=0;orthogonalLoop=1;jettySize=auto;html=1;entryX=0.5;entryY=1;entryDx=0;entryDy=0;" edge="1" parent="jYgMbnTf0k2NDcr2TIOn-7" source="LfKEWyIAfhMCScR9uphU-35" target="LfKEWyIAfhMCScR9uphU-37">
          <mxGeometry relative="1" as="geometry" />
        </mxCell>
        <mxCell id="LfKEWyIAfhMCScR9uphU-35" value="Sellers Home Page" style="html=1;whiteSpace=wrap;strokeColor=none;fillColor=#0079D6;labelPosition=center;verticalLabelPosition=middle;verticalAlign=top;align=center;fontSize=12;outlineConnect=0;spacingTop=-6;fontColor=#FFFFFF;sketch=0;shape=mxgraph.sitemap.page;" vertex="1" parent="jYgMbnTf0k2NDcr2TIOn-7">
          <mxGeometry x="840" y="844.5" width="90" height="120" as="geometry" />
        </mxCell>
        <mxCell id="LfKEWyIAfhMCScR9uphU-37" value="Analytics Service" style="rounded=0;whiteSpace=wrap;html=1;" vertex="1" parent="jYgMbnTf0k2NDcr2TIOn-7">
          <mxGeometry x="830" y="717.75" width="110" height="60" as="geometry" />
        </mxCell>
        <mxCell id="LfKEWyIAfhMCScR9uphU-43" value="" style="image;aspect=fixed;html=1;points=[];align=center;fontSize=12;image=img/lib/azure2/app_services/CDN_Profiles.svg;" vertex="1" parent="jYgMbnTf0k2NDcr2TIOn-7">
          <mxGeometry x="92" y="483" width="68" height="40" as="geometry" />
        </mxCell>
        <mxCell id="LfKEWyIAfhMCScR9uphU-45" value="CDN" style="text;html=1;align=center;verticalAlign=middle;resizable=0;points=[];autosize=1;strokeColor=none;fillColor=none;" vertex="1" parent="jYgMbnTf0k2NDcr2TIOn-7">
          <mxGeometry x="101.07" y="518" width="50" height="30" as="geometry" />
        </mxCell>
        <mxCell id="jYgMbnTf0k2NDcr2TIOn-35" value="All users&lt;div&gt;(Customers and Merchants)&lt;/div&gt;" style="text;html=1;align=center;verticalAlign=middle;resizable=0;points=[];autosize=1;strokeColor=none;fillColor=none;" parent="1" vertex="1">
          <mxGeometry x="-120" y="857" width="170" height="40" as="geometry" />
        </mxCell>
        <mxCell id="ORzUHnlXvHvA-4kOsw9z-10" value="API Gateway" style="text;html=1;align=center;verticalAlign=middle;resizable=0;points=[];autosize=1;strokeColor=none;fillColor=none;" parent="1" vertex="1">
          <mxGeometry x="89.5" y="807" width="90" height="30" as="geometry" />
        </mxCell>
        <mxCell id="LfKEWyIAfhMCScR9uphU-1" value="" style="sketch=0;points=[[0,0,0],[0.25,0,0],[0.5,0,0],[0.75,0,0],[1,0,0],[0,1,0],[0.25,1,0],[0.5,1,0],[0.75,1,0],[1,1,0],[0,0.25,0],[0,0.5,0],[0,0.75,0],[1,0.25,0],[1,0.5,0],[1,0.75,0]];outlineConnect=0;fontColor=#232F3E;fillColor=#E7157B;strokeColor=#ffffff;dashed=0;verticalLabelPosition=bottom;verticalAlign=top;align=center;html=1;fontSize=12;fontStyle=0;aspect=fixed;shape=mxgraph.aws4.resourceIcon;resIcon=mxgraph.aws4.api_gateway;" vertex="1" parent="1">
          <mxGeometry x="110" y="838" width="78" height="78" as="geometry" />
        </mxCell>
        <mxCell id="LfKEWyIAfhMCScR9uphU-9" style="edgeStyle=orthogonalEdgeStyle;rounded=0;orthogonalLoop=1;jettySize=auto;html=1;entryX=0;entryY=0.5;entryDx=0;entryDy=0;entryPerimeter=0;" edge="1" parent="1" source="jYgMbnTf0k2NDcr2TIOn-6" target="LfKEWyIAfhMCScR9uphU-1">
          <mxGeometry relative="1" as="geometry">
            <Array as="points">
              <mxPoint x="50" y="1011" />
              <mxPoint x="50" y="877" />
            </Array>
          </mxGeometry>
        </mxCell>
        <mxCell id="LfKEWyIAfhMCScR9uphU-34" value="&lt;h3 style=&quot;&quot;&gt;&lt;span style=&quot;background-color: initial;&quot;&gt;Notes:&amp;nbsp;&lt;/span&gt;&lt;/h3&gt;&lt;div style=&quot;text-align: left;&quot;&gt;&lt;ul&gt;&lt;li&gt;&lt;span style=&quot;&quot;&gt;Solid lines represent API calling, where a solid arrow from A to B represents A calling B&#39;s API&lt;/span&gt;&lt;/li&gt;&lt;li&gt;&lt;span style=&quot;&quot;&gt;Dotted lines represent data flow, especially through a message broker. A dotted arrow from A to B represents data flowing from A to B, where A may publish a topic to the message broker and B consumes it at a later time&lt;/span&gt;&lt;/li&gt;&lt;li&gt;&lt;span style=&quot;&quot;&gt;Data Processing to Recommendation Service could use lambda architecture (with fast/batch lanes) depending on the recommendation query&lt;/span&gt;&lt;/li&gt;&lt;li&gt;&lt;span style=&quot;&quot;&gt;Orders Service will process orders as list of events, which will be stored in Orders DB and sent to message broker in an orders topic for the Data Processing service to consume and publish for Recommendations and Analytics&lt;/span&gt;&lt;/li&gt;&lt;li&gt;Search Service DB will be eventually consistent and prioritizes availability. It will consume and process product changes from the message broker whenever the Products service publishes an event from a change by a Seller&lt;/li&gt;&lt;/ul&gt;&lt;h3&gt;All services are placed behind a load balancer cluster (for each service). Each service and message broker is clustered for high availability and fault tolerance. Databases are replicated (for high availability and fault tolerance) and sharded (for performance).&amp;nbsp;&lt;/h3&gt;&lt;h3&gt;Product images are placed in a distributed blob storage to query with the image_url attribute in each product data. Each client request is also distributed by a Global Load Balancer, and CDN solutions are placed in strategic areas for better performance.&amp;nbsp;&lt;/h3&gt;&lt;/div&gt;" style="rounded=1;whiteSpace=wrap;html=1;" vertex="1" parent="1">
          <mxGeometry x="1360" y="566.5" width="830" height="355" as="geometry" />
        </mxCell>
      </root>
    </mxGraphModel>
  </diagram>
</mxfile>
